<svg width="382" height="876" viewBox="0 0 382 876" fill="none" xmlns="http://www.w3.org/2000/svg">
<path d="M204.157 875.383C208.274 875.838 211.98 872.869 212.435 868.752C212.89 864.635 209.921 860.928 205.804 860.474L204.981 867.928L204.157 875.383ZM204.881 867.917L205.705 860.463L205.683 860.46L205.662 860.458L204.881 867.917ZM103.682 853.668L102.098 860.999L103.682 853.668ZM246.976 666.573L252.452 671.698L246.976 666.573ZM185.192 526.795L183.01 533.971L185.192 526.795ZM11.7887 450.708L4.76518 453.339L11.7887 450.708ZM72.3856 358.804L73.7753 366.174L72.3856 358.804ZM275.279 345.554L276.824 352.893L275.279 345.554ZM318.785 306.684L311.677 304.29L318.785 306.684ZM300.731 257.34L296.861 263.764L300.731 257.34ZM171.476 216.114L173.254 208.828L171.476 216.114ZM63.0978 160.311L55.8899 162.384L63.0978 160.311ZM184.535 43.1752L184.85 50.6685L184.535 43.1752ZM253.107 44.0373L252.603 51.5204L253.107 44.0373ZM321.404 46.0653L321.465 53.5651L321.404 46.0653ZM364.245 26.6435L357.435 23.5014L364.245 26.6435ZM373.338 7.50026L376.156 0.549849L374.812 0.00482221L373.361 0.000298979L373.338 7.50026ZM373.54 7.58201L370.721 14.5324L376.164 16.7393L379.612 11.9843L373.54 7.58201ZM379.67 11.9033C382.102 8.54975 381.354 3.86026 378.001 1.42896C374.647 -1.00229 369.958 -0.254701 367.526 3.09882L373.598 7.50107L379.67 11.9033ZM204.981 867.928L205.804 860.474L205.705 860.463L204.881 867.917L204.058 875.372L204.157 875.383L204.981 867.928ZM204.881 867.917L205.662 860.458C160.129 855.692 126.73 850.975 105.266 846.337L103.682 853.668L102.098 860.999C124.395 865.817 158.463 870.6 204.1 875.377L204.881 867.917ZM103.682 853.668L105.266 846.337C84.9571 841.948 67.689 831.906 53.3034 816.028L47.7454 821.064L42.1874 826.1C58.6209 844.237 78.6436 855.93 102.098 860.999L103.682 853.668ZM47.7454 821.064L53.3034 816.028C39.1687 800.428 33.0014 783.112 34.3309 763.714L26.8484 763.201L19.366 762.688C17.739 786.426 25.503 807.685 42.1874 826.1L47.7454 821.064ZM26.8484 763.201L34.3309 763.714C35.6171 744.949 44.8567 731.119 63.0857 721.68L59.637 715.019L56.1882 708.359C33.6557 720.027 21.0363 738.319 19.366 762.688L26.8484 763.201ZM59.637 715.019L63.0857 721.68C82.6565 711.545 103.372 705.23 125.277 702.721L124.423 695.269L123.569 687.818C99.8539 690.535 77.3791 697.386 56.1882 708.359L59.637 715.019ZM124.423 695.269L125.277 702.721C147.94 700.125 170.645 698.201 193.393 696.95L192.981 689.461L192.569 681.972C169.526 683.24 146.526 685.188 123.569 687.818L124.423 695.269ZM192.981 689.461L193.393 696.95C217.816 695.606 237.779 687.377 252.452 671.698L246.976 666.573L241.5 661.449C229.971 673.768 213.938 680.797 192.569 681.972L192.981 689.461ZM246.976 666.573L252.452 671.698C266.909 656.249 274.538 636.846 275.594 613.987L268.102 613.641L260.61 613.295C259.699 633.015 253.243 648.9 241.5 661.449L246.976 666.573ZM268.102 613.641L275.594 613.987C276.692 590.225 267.465 569.93 248.64 553.557L243.718 559.216L238.796 564.876C254.45 578.49 261.48 594.478 260.61 613.295L268.102 613.641ZM243.718 559.216L248.64 553.557C230.606 537.873 210.164 526.548 187.373 519.619L185.192 526.795L183.01 533.971C203.774 540.283 222.349 550.572 238.796 564.876L243.718 559.216ZM185.192 526.795L187.373 519.619C165.135 512.859 142.362 508.26 119.061 505.823L118.281 513.282L117.5 520.741C139.859 523.08 161.694 527.491 183.01 533.971L185.192 526.795ZM118.281 513.282L119.061 505.823C97.0229 503.517 76.3029 497.87 56.8609 488.895L53.7177 495.705L50.5744 502.514C71.5561 512.2 93.878 518.27 117.5 520.741L118.281 513.282ZM53.7177 495.705L56.8609 488.895C38.4249 480.385 25.8537 466.878 18.8123 448.078L11.7887 450.708L4.76518 453.339C13.2055 475.874 28.5868 492.365 50.5744 502.514L53.7177 495.705ZM11.7887 450.708L18.8123 448.078C11.9753 429.823 14.2973 412.994 26.0775 396.723L20.0026 392.325L13.9277 387.926C-0.725557 408.165 -3.87951 430.258 4.76518 453.339L11.7887 450.708ZM20.0026 392.325L26.0775 396.723C38.1952 379.987 53.9964 369.904 73.7753 366.174L72.3856 358.804L70.9959 351.434C47.3644 355.89 28.2435 368.154 13.9277 387.926L20.0026 392.325ZM72.3856 358.804L73.7753 366.174C94.9416 362.183 116.733 360.46 139.16 361.016L139.346 353.518L139.532 346.02C116.089 345.439 93.2401 347.24 70.9959 351.434L72.3856 358.804ZM139.346 353.518L139.16 361.016C162.227 361.587 185.292 361.55 208.356 360.904L208.146 353.407L207.936 345.91C185.136 346.549 162.335 346.586 139.532 346.02L139.346 353.518ZM208.146 353.407L208.356 360.904C231.724 360.25 254.549 357.582 276.824 352.893L275.279 345.554L273.735 338.215C252.363 342.713 230.432 345.28 207.936 345.91L208.146 353.407ZM275.279 345.554L276.824 352.893C301.275 347.746 317.874 332.887 325.892 309.077L318.785 306.684L311.677 304.29C305.336 323.12 292.931 334.174 273.735 338.215L275.279 345.554ZM318.785 306.684L325.892 309.077C329.87 297.268 330.444 286.014 326.7 275.781C322.955 265.545 315.257 257.335 304.602 250.916L300.731 257.34L296.861 263.764C305.421 268.921 310.34 274.723 312.613 280.935C314.887 287.15 314.88 294.78 311.677 304.29L318.785 306.684ZM300.731 257.34L304.602 250.916C284.701 238.927 263.194 230.23 240.114 224.82L238.402 232.122L236.69 239.424C258.284 244.486 278.33 252.601 296.861 263.764L300.731 257.34ZM238.402 232.122L240.114 224.82C217.798 219.589 195.512 214.258 173.254 208.828L171.476 216.114L169.699 223.4C192 228.842 214.331 234.183 236.69 239.424L238.402 232.122ZM171.476 216.114L173.254 208.828C151.033 203.406 128.884 197.72 106.807 191.768L104.855 199.009L102.902 206.251C125.095 212.234 147.361 217.95 169.699 223.4L171.476 216.114ZM104.855 199.009L106.807 191.768C86.8706 186.393 75.191 175.227 70.3057 158.239L63.0978 160.311L55.8899 162.384C62.4104 185.058 78.5688 199.691 102.902 206.251L104.855 199.009ZM63.0978 160.311L70.3057 158.239C65.2263 140.576 67.7514 123.764 78.2312 107.273L71.9013 103.251L65.5714 99.2281C52.9073 119.156 49.5634 140.385 55.8899 162.384L63.0978 160.311ZM71.9013 103.251L78.2312 107.273C89.0451 90.2573 103.964 76.8176 123.181 66.9498L119.755 60.2779L116.33 53.6061C94.8855 64.6171 77.9014 79.826 65.5714 99.2281L71.9013 103.251ZM119.755 60.2779L123.181 66.9498C142.546 57.0064 163.078 51.5854 184.85 50.6685L184.535 43.1752L184.219 35.6818C160.281 36.6898 137.626 42.6706 116.33 53.6061L119.755 60.2779ZM184.535 43.1752L184.85 50.6685C207.432 49.7176 230.016 50.0015 252.603 51.5204L253.107 44.0373L253.61 36.5542C230.478 34.9988 207.348 34.7079 184.219 35.6818L184.535 43.1752ZM253.107 44.0373L252.603 51.5204C275.649 53.0701 298.603 53.7518 321.465 53.5651L321.404 46.0653L321.342 38.5656C298.861 38.7492 276.283 38.0789 253.61 36.5542L253.107 44.0373ZM321.404 46.0653L321.465 53.5651C345.095 53.3721 363.305 46.5826 371.055 29.7856L364.245 26.6435L357.435 23.5014C353.407 32.2299 343.057 38.3882 321.342 38.5656L321.404 46.0653ZM364.245 26.6435L371.055 29.7856C373.996 23.41 376.212 18.655 377.709 15.5037C378.461 13.92 379.012 12.784 379.374 12.0626C379.563 11.6874 379.661 11.5035 379.692 11.4475C379.72 11.3962 379.65 11.5291 379.515 11.7315C379.466 11.8044 379.259 12.1175 378.932 12.4868C378.782 12.6568 378.412 13.0632 377.853 13.486C377.559 13.7082 375.882 15.0082 373.315 15.0002L373.338 7.50026L373.361 0.000298979C370.789 -0.00772353 369.105 1.29538 368.803 1.52381C368.236 1.95283 367.856 2.36858 367.695 2.551C367.346 2.94524 367.111 3.29564 367.029 3.41831C366.828 3.72048 366.669 4.00289 366.586 4.15082C366.395 4.49361 366.182 4.90781 365.97 5.33024C365.531 6.20388 364.923 7.46078 364.16 9.06766C362.626 12.2974 360.382 17.1143 357.435 23.5014L364.245 26.6435ZM373.338 7.50026L370.52 14.4507L370.721 14.5324L373.54 7.58201L376.358 0.631655L376.156 0.549849L373.338 7.50026ZM373.54 7.58201L379.612 11.9843L379.67 11.9033L373.598 7.50107L367.526 3.09882L367.468 3.17981L373.54 7.58201Z" fill="#C49A78"/>
</svg>
